# Blender v2.68 (sub 0) OBJ File: ''
# www.blender.org
o Cone_Cone.001
v 0.000000 1.000000 -0.999999
v 0.195090 0.980786 -0.999999
v 0.382683 0.923880 -0.999999
v 0.555570 0.831470 -0.999999
v 0.707107 0.707107 -1.000000
v 0.831470 0.555570 -1.000000
v 0.923880 0.382684 -1.000000
v 0.980785 0.195091 -1.000000
v 1.000000 0.000000 -1.000000
v 0.980785 -0.195090 -1.000000
v 0.923880 -0.382683 -1.000000
v 0.831470 -0.555570 -1.000000
v 0.000000 -0.000000 0.000000
v 0.707107 -0.707106 -1.000000
v 0.555570 -0.831469 -1.000000
v 0.382683 -0.923879 -1.000001
v 0.195090 -0.980785 -1.000001
v -0.000000 -1.000000 -1.000001
v -0.195091 -0.980785 -1.000001
v -0.382684 -0.923879 -1.000001
v -0.555571 -0.831469 -1.000000
v -0.707107 -0.707106 -1.000000
v -0.831470 -0.555569 -1.000000
v -0.923880 -0.382682 -1.000000
v -0.980785 -0.195089 -1.000000
v -1.000000 0.000001 -1.000000
v -0.980785 0.195092 -1.000000
v -0.923879 0.382685 -1.000000
v -0.831469 0.555572 -1.000000
v -0.707106 0.707108 -1.000000
v -0.555569 0.831471 -0.999999
v -0.382682 0.923880 -0.999999
v -0.195089 0.980786 -0.999999
vn -0.205756 0.678290 0.705399
vn 0.069476 0.705398 0.705399
vn -0.069476 0.705398 0.705399
vn 0.205757 0.678290 0.705399
vn -0.334131 0.625116 0.705399
vn -0.449664 0.547919 0.705399
vn -0.547918 0.449665 0.705398
vn -0.625115 0.334131 0.705398
vn -0.678290 0.205757 0.705398
vn -0.705398 0.069476 0.705398
vn -0.705398 -0.069476 0.705398
vn -0.678290 -0.205757 0.705398
vn -0.625116 -0.334131 0.705398
vn -0.547919 -0.449665 0.705398
vn -0.449666 -0.547919 0.705398
vn -0.334131 -0.625116 0.705398
vn -0.205757 -0.678291 0.705398
vn -0.069476 -0.705399 0.705398
vn 0.069476 -0.705399 0.705398
vn 0.205757 -0.678291 0.705398
vn 0.334131 -0.625116 0.705398
vn 0.449665 -0.547919 0.705398
vn 0.547918 -0.449666 0.705398
vn 0.625116 -0.334132 0.705398
vn 0.678290 -0.205758 0.705398
vn 0.705398 -0.069476 0.705398
vn 0.705398 0.069475 0.705398
vn 0.678290 0.205757 0.705398
vn 0.625116 0.334131 0.705398
vn 0.547918 0.449665 0.705398
vn 0.449665 0.547918 0.705399
vn 0.334131 0.625115 0.705399
vn 0.000000 0.000000 -1.000000
vn 0.000000 0.000001 -1.000000
vn 0.000002 -0.000002 -1.000000
vn 0.000000 0.000002 -1.000000
vn -0.000002 -0.000002 -1.000000
vn -0.000001 -0.000001 -1.000000
s off
f 32//1 13//1 33//1
f 1//2 13//2 2//2
f 33//3 13//3 1//3
f 2//4 13//4 3//4
f 31//5 13//5 32//5
f 30//6 13//6 31//6
f 29//7 13//7 30//7
f 28//8 13//8 29//8
f 27//9 13//9 28//9
f 26//10 13//10 27//10
f 25//11 13//11 26//11
f 24//12 13//12 25//12
f 23//13 13//13 24//13
f 22//14 13//14 23//14
f 21//15 13//15 22//15
f 20//16 13//16 21//16
f 19//17 13//17 20//17
f 18//18 13//18 19//18
f 17//19 13//19 18//19
f 16//20 13//20 17//20
f 15//21 13//21 16//21
f 14//22 13//22 15//22
f 12//23 13//23 14//23
f 11//24 13//24 12//24
f 10//25 13//25 11//25
f 9//26 13//26 10//26
f 8//27 13//27 9//27
f 7//28 13//28 8//28
f 6//29 13//29 7//29
f 5//30 13//30 6//30
f 4//31 13//31 5//31
f 3//32 13//32 4//32
